<svg width="1920" height="748" viewBox="0 0 1920 748" fill="none" xmlns="http://www.w3.org/2000/svg">
<path opacity="0.04" d="M2149.27 554.201C2146.76 546.349 2106.58 487.472 2037.19 398.909C1961.34 301.972 1860.39 159.712 1721.1 49.8728C1668.1 8.23353 1605.26 -13.8702 1556.84 9.51326C1504.35 34.96 1468.6 100.609 1417.16 166.746C1373.33 223.098 1302.78 266.836 1231.03 257.155C1145.37 245.498 1064.18 194.892 985.701 196.468C823.756 200.246 748.766 422.067 639.386 573.058C591.287 639.421 526.216 682.671 458.549 686.641C387.048 690.645 313.035 663.623 239.53 637.123C-538.474 355.076 -490.25 1155.87 -146.917 865.516C-72.7892 802.731 12.6703 702.146 148.078 696.173C293.477 689.932 497.093 772.984 642.731 668.585C722.706 611.284 791.111 532.933 885.036 510.368C978.69 487.908 1088.49 527.579 1196.58 562.123C1299.4 595.057 1398.82 608.594 1481.85 596.929C1563.15 585.472 1636.46 564.848 1703.89 569.184C1858.81 579.134 1981.67 637.976 2060.66 643.139C2138.25 648.031 2171.4 622.75 2149.26 554.21L2149.27 554.201Z" fill="#FCFCFC"/>
</svg>
