<svg width="84" height="87" viewBox="0 0 84 87" fill="#fff" xmlns="http://www.w3.org/2000/svg">
<path d="M0.0159653 43.1848C0.0159653 29.2481 0.0159653 15.3115 0.0159653 1.37491C0.0159653 0.16216 0.1676 0.00606439 1.40864 0.00606439C27.8057 0.00606439 54.2027 0.00606439 80.6038 0.00606439C81.3341 0.00606439 82.0683 -0.00994771 82.7986 0.0100647C83.5208 0.030077 83.9159 0.382298 83.7922 1.0387C83.5927 2.10336 83.6924 3.16401 83.6924 4.22467C83.6844 29.3642 83.6885 54.5038 83.6885 79.6473C83.6885 80.3437 83.6885 81.0322 83.888 81.7246C84.0516 82.2929 84.0396 82.9213 83.8281 83.4977C83.6605 83.962 83.6485 84.4063 83.8281 84.8625C83.8521 84.9226 83.876 84.9866 83.888 85.0547C84.1434 86.9318 83.8321 87.0039 82.3676 86.9999C74.6859 86.9799 67.0082 86.9919 59.3265 86.9959C58.0216 86.9959 58.0256 86.9238 57.3832 85.619C57.0001 84.8345 56.629 84.002 56.0863 83.3296C55.6872 82.8373 55.4677 82.2529 55.1645 81.7406C54.8971 81.2843 54.6337 80.76 54.3424 80.3197C53.5922 79.187 52.9338 77.9943 52.2434 76.8376C51.4892 75.5728 50.7749 74.252 50.1165 72.9191C49.7693 72.2147 49.2386 71.6183 48.8515 70.9179C48.2849 69.8893 47.794 68.8166 47.1675 67.816C46.4732 66.7113 45.7669 65.6106 45.1364 64.4619C44.6136 63.5013 44.3383 62.4807 44.3143 61.4481C44.2505 58.3822 44.2984 55.3123 44.3064 52.2464C44.3064 51.9822 44.2984 51.706 44.3582 51.4499C44.5338 50.7254 44.8451 50.4733 45.5873 50.3932C46.7765 50.2651 47.9177 49.8969 49.083 49.6648C49.9449 49.4927 50.7151 48.8643 51.5052 48.404C53.0375 47.5114 54.2347 46.2587 55.3919 44.9499C55.763 44.5296 55.5715 43.8132 56.1661 43.529C56.7487 41.8519 57.1677 40.1029 56.7447 38.3698C56.4175 37.029 55.8069 35.7442 54.7614 34.7115C53.7119 33.6749 52.6664 32.6382 51.3735 31.9418C50.2402 31.3294 49.087 30.7531 47.8499 30.3048C46.6887 29.8845 45.4157 30.0326 44.3343 29.3882C44.0988 29.2481 43.7517 29.2682 43.4564 29.2602C40.6311 29.1761 37.8059 29.1721 34.9806 29.2522C34.1506 29.2762 33.3245 29.3402 32.5424 29.6844C32.2551 29.8125 32.1154 29.9646 32.1194 30.2728C32.1234 30.4729 32.1194 30.673 32.1194 30.8732C32.1154 37.041 32.1074 43.2088 32.1074 49.3766C32.1074 49.8329 32.0995 50.2411 32.5424 50.6134C32.8656 50.8895 33.1968 51.3618 32.8696 51.9462C32.7379 52.1823 32.7898 52.5305 32.7898 52.8307C32.7898 55.5324 32.7898 58.2341 32.7898 60.9317C32.7898 61.0638 32.7699 61.2039 32.7978 61.332C32.9534 62.0965 33.0572 62.8129 32.2272 63.3252C31.9957 63.4693 32.1114 63.8896 32.1114 64.1858C32.1114 70.3536 32.1154 76.5214 32.1194 82.6892C32.1194 83.6898 32.1114 84.6904 32.1194 85.691C32.1194 86.1113 32.0037 86.3635 31.5328 86.4475C30.8265 86.5716 30.1441 86.9238 29.4099 86.5356C29.2902 86.4715 29.0787 86.5276 28.931 86.5916C28.536 86.7597 28.1569 86.7317 27.7698 86.5716C27.4545 86.4395 27.1153 86.4755 26.7841 86.4755C18.7393 86.4755 10.6945 86.4755 2.64569 86.4715C2.3504 86.4715 2.06308 86.4875 1.76778 86.5796C0.782132 86.8918 0.0837973 86.3675 0.0718258 85.3028C0.0518734 83.5017 0.0558726 81.7006 0.0558726 79.9035C0.0558726 67.6679 0.0558726 55.4283 0.0558726 43.1928H0L0.0159653 43.1848ZM74.4026 43.597H74.3906C74.3906 33.795 74.3906 23.9929 74.3906 14.1908C74.3906 13.0581 74.3986 11.9254 74.3826 10.7927C74.3667 9.83214 74.3307 9.80012 73.3451 9.79212C71.9165 9.78411 70.4879 9.79212 69.0553 9.79212C49.7733 9.79212 30.4953 9.78811 11.2133 9.79212C9.61706 9.79212 9.64499 9.53996 9.64499 11.3531C9.64499 32.8224 9.65699 54.2916 9.66497 75.7609C9.66497 75.893 9.66098 76.0291 9.66497 76.1612C9.67295 76.5654 9.82458 76.7935 10.2795 76.7055C10.6386 76.6375 11.0257 76.5694 11.337 76.8176C11.6881 77.0937 12.0792 77.0617 12.4783 77.0617C15.5709 77.0657 18.6595 77.0777 21.7521 77.0777C22.8136 77.0777 23.0171 76.8616 23.0131 75.7689C23.0011 64.502 22.9852 53.231 22.9772 41.964C22.9732 34.9637 22.9772 27.9634 22.9852 20.963C22.9852 20.0985 23.3563 19.7062 24.2063 19.6222C24.338 19.6102 24.4737 19.6142 24.6053 19.6102C29.0946 19.5782 33.5799 19.5461 38.0692 19.5221C38.7995 19.5221 39.5537 19.4501 40.252 19.6662C40.8386 19.8463 41.4212 19.9184 42.0158 19.9064C44.454 19.8503 46.8243 20.3787 49.2107 20.7509C49.3423 20.7709 49.49 20.7869 49.5898 20.863C50.328 21.4073 51.2618 21.4473 52.0838 21.6995C53.4406 22.1157 54.6936 22.7641 55.9785 23.3045C57.6705 24.0129 59.0472 25.3297 60.392 26.5585C61.4814 27.5551 62.3274 28.8079 63.1015 30.1167C63.736 31.1893 64.2348 32.31 64.7217 33.4307C65.2205 34.5754 65.5836 35.8002 65.4958 37.097C65.4599 37.6253 65.5517 38.1376 65.7432 38.658C65.9747 39.2864 65.9787 39.9868 65.7313 40.6232C65.5557 41.0755 65.5238 41.5277 65.4998 41.992C65.4719 42.5924 65.4559 43.1928 65.432 43.7891C65.3841 44.9699 64.8933 46.0105 64.4344 47.0712C64.0313 48.0037 63.4806 48.8523 63.0576 49.7608C62.5149 50.9216 61.7927 51.9502 60.9307 52.8347C59.151 54.6599 57.2834 56.3929 54.8133 57.3135C54.4222 57.4576 54.0671 57.7658 53.6201 57.8979C53.245 58.0099 53.0854 58.4342 53.1692 58.7944C53.2809 59.2627 53.3408 59.763 53.7558 60.1392C54.0392 60.3954 54.2866 60.7556 54.3983 61.1199C54.6257 61.8483 55.1126 62.4207 55.4597 63.0691C55.8748 63.8375 56.5332 64.4939 56.8445 65.2904C57.2196 66.251 57.9259 66.9795 58.3449 67.9161C58.9115 69.1808 59.7495 70.3296 60.5596 71.4703C61.21 72.3828 61.665 73.4035 62.2157 74.364C62.6027 75.0445 63.1694 75.6288 63.4407 76.3213C63.748 77.0977 64.2109 77.1698 64.8893 77.1658C67.6467 77.1498 70.4081 77.1658 73.1655 77.1658C73.4329 77.1658 73.6963 77.1538 73.9636 77.1418C74.243 77.1298 74.3826 76.9777 74.3946 76.7015C74.4026 76.5014 74.4106 76.3012 74.4106 76.1011C74.4106 65.2664 74.4106 54.4317 74.4106 43.597H74.4026Z" fill="#FFEE4D"/>
</svg>
